{"title":"Shadow Dancer 2012 VODRiP XViD 1MPERiUM","uid":8009994,"size":916207746,"categoryP":"video","categoryS":"movies","magnet":"?xt=urn:btih:44214e1c5e88292c63ad9e9bf1cefa55a7973149&amp;dn=Shadow+Dancer+2012+VODRiP+XViD+1MPERiUM&amp;tr=udp%3A%2F%2Ftracker.openbittorrent.com%3A80&amp;tr=udp%3A%2F%2Fopen.demonii.com%3A1337&amp;tr=udp%3A%2F%2Ftracker.coppersurfer.tk%3A6969&amp;tr=udp%3A%2F%2Fexodus.desync.com%3A6969","seeders":0,"leechers":1,"uploader":"HeroMaster","files":-1,"time":1357974509,"description":"Shadow Dancer 2012 VODRiP XViD 1MPERiUM\n\n\nwww.imdb.com/title/tt1770734/\n\n\nSources: Elvis - Thx\n\n\nPlot: Set in 1990s Belfast, an active member of the IRA becomes an informant for \nMI5 in order to protect her son's welfare.\n\n\nFormat                                   : AVI\nFormat/Info                              : Audio Video Interleave\nFile size                                : 870 MiB\nDuration                                 : 1h 37mn\nOverall bit rate                         : 1 246 Kbps\nWriting application                      : Lavf54.0.100\n\nVideo\nID                                       : 0\nFormat                                   : MPEG-4 Visual\nFormat profile                           : Simple@L1\nFormat settings, BVOP                    : No\nFormat settings, QPel                    : No\nFormat settings, GMC                     : No warppoints\nFormat settings, Matrix                  : Default (H.263)\nCodec ID                                 : XVID\nCodec ID/Hint                            : XviD\nDuration                                 : 1h 37mn\nBit rate                                 : 1 106 Kbps\nWidth                                    : 720 pixels\nHeight                                   : 304 pixels\nDisplay aspect ratio                     : 2.35:1\nFrame rate                               : 25.000 fps\nColor space                              : YUV\nChroma subsampling                       : 4:2:0\nBit depth                                : 8 bits\nScan type                                : Progressive\nCompression mode                         : Lossy\nBits/(Pixel*Frame)                       : 0.202\nStream size                              : 772 MiB (89%)\nWriting library                          : Lavc54.1.100\n\nAudio\nID                                       : 1\nFormat                                   : MPEG Audio\nFormat version                           : Version 1\nFormat profile                           : Layer 3\nCodec ID                                 : 55\nCodec ID/Hint                            : MP3\nDuration                                 : 1h 37mn\nBit rate mode                            : Constant\nBit rate                                 : 128 Kbps\nChannel(s)                               : 2 channels\nSampling rate                            : 44.1 KHz\nCompression mode                         : Lossy\nStream size                              : 89.4 MiB (10%)\nAlignment                                : Aligned on interleaves\nInterleave, duration                     : 26 ms (0.65 video frame)\n\n\nPoster:\n\n &lt;a href=&quot;\nhttp://imgon.net/di-OY6K.jpg&quot; rel=&quot;nofollow&quot; target=&quot;_NEW&quot;&gt;\nhttp://imgon.net/di-OY6K.jpg&lt;/a&gt;\n\n\nScreesnhots:\n\n &lt;a href=&quot;\nhttp://imgon.net/di-ESTX.jpg&quot; rel=&quot;nofollow&quot; target=&quot;_NEW&quot;&gt;\nhttp://imgon.net/di-ESTX.jpg&lt;/a&gt;\n\n\nSEED AND ENJOY!","torrent":{"xt":"urn:btih:44214e1c5e88292c63ad9e9bf1cefa55a7973149","amp;dn":"Shadow+Dancer+2012+VODRiP+XViD+1MPERiUM","amp;tr":["udp%3A%2F%2Ftracker.openbittorrent.com%3A80","udp%3A%2F%2Fopen.demonii.com%3A1337","udp%3A%2F%2Ftracker.coppersurfer.tk%3A6969","udp%3A%2F%2Fexodus.desync.com%3A6969"],"infoHash":"44214e1c5e88292c63ad9e9bf1cefa55a7973149","infoHashBuffer":{"type":"Buffer","data":[68,33,78,28,94,136,41,44,99,173,158,155,241,206,250,85,167,151,49,73]},"announce":[],"urlList":[]}}